<svg width="12" height="10" viewBox="0 0 12 10" fill="none" xmlns="http://www.w3.org/2000/svg">
<path fill-rule="evenodd" clip-rule="evenodd" d="M0.514286 0.714355C0.650131 0.716131 0.779912 0.770885 0.875977 0.86695C0.972042 0.963015 1.0268 1.0928 1.02857 1.22864V8.7715C1.0268 8.90734 0.972042 9.03713 0.875977 9.13319C0.779912 9.22925 0.650131 9.28401 0.514286 9.28578C0.378441 9.28401 0.24866 9.22925 0.152595 9.13319C0.0565297 9.03713 0.00177598 8.90734 0 8.7715L0 1.22864C0.00177598 1.0928 0.0565297 0.963015 0.152595 0.86695C0.24866 0.770885 0.378441 0.716131 0.514286 0.714355Z" fill="black"/>
<path fill-rule="evenodd" clip-rule="evenodd" d="M3.25696 0.714355C3.39281 0.716131 3.52259 0.770885 3.61865 0.86695C3.71472 0.963015 3.76947 1.0928 3.77125 1.22864V8.7715C3.76947 8.90734 3.71472 9.03713 3.61865 9.13319C3.52259 9.22925 3.39281 9.28401 3.25696 9.28578C3.12112 9.28401 2.99134 9.22925 2.89527 9.13319C2.79921 9.03713 2.74445 8.90734 2.74268 8.7715V1.22864C2.74445 1.0928 2.79921 0.963015 2.89527 0.86695C2.99134 0.770885 3.12112 0.716131 3.25696 0.714355Z" fill="black"/>
<path fill-rule="evenodd" clip-rule="evenodd" d="M6.00013 0.714355C6.13597 0.716131 6.26575 0.770885 6.36182 0.86695C6.45788 0.963015 6.51264 1.0928 6.51441 1.22864V8.7715C6.51264 8.90734 6.45788 9.03713 6.36182 9.13319C6.26575 9.22925 6.13597 9.28401 6.00013 9.28578C5.86428 9.28401 5.7345 9.22925 5.63843 9.13319C5.54237 9.03713 5.48762 8.90734 5.48584 8.7715V1.22864C5.48762 1.0928 5.54237 0.963015 5.63843 0.86695C5.7345 0.770885 5.86428 0.716131 6.00013 0.714355Z" fill="black"/>
<path fill-rule="evenodd" clip-rule="evenodd" d="M8.7428 0.714355C8.87865 0.716131 9.00843 0.770885 9.10449 0.86695C9.20056 0.963015 9.25531 1.0928 9.25709 1.22864V8.7715C9.25531 8.90734 9.20056 9.03713 9.10449 9.13319C9.00843 9.22925 8.87865 9.28401 8.7428 9.28578C8.60696 9.28401 8.47718 9.22925 8.38111 9.13319C8.28505 9.03713 8.23029 8.90734 8.22852 8.7715V1.22864C8.23029 1.0928 8.28505 0.963015 8.38111 0.86695C8.47718 0.770885 8.60696 0.716131 8.7428 0.714355Z" fill="black"/>
<path fill-rule="evenodd" clip-rule="evenodd" d="M11.4855 0.714355C11.6213 0.716131 11.7511 0.770885 11.8472 0.86695C11.9432 0.963015 11.998 1.0928 11.9998 1.22864V8.7715C11.998 8.90734 11.9432 9.03713 11.8472 9.13319C11.7511 9.22925 11.6213 9.28401 11.4855 9.28578C11.3496 9.28401 11.2199 9.22925 11.1238 9.13319C11.0277 9.03713 10.973 8.90734 10.9712 8.7715V1.22864C10.973 1.0928 11.0277 0.963015 11.1238 0.86695C11.2199 0.770885 11.3496 0.716131 11.4855 0.714355Z" fill="black"/>
</svg>
